<?xml version="1.0" encoding="UTF-8"?>
<svg xmlns="http://www.w3.org/2000/svg" width="1280" height="1060" viewBox="0 0 1280 1060" role="img" aria-labelledby="title desc">
  <title id="title">05 Reality Testing and Evidence Seeking</title>
  <desc id="desc">Illustrated workflow with business and coding examples for Reality Testing and Evidence Seeking.</desc>
  <style>
    .frame-card .frame-bg { transition: stroke-width 160ms ease, filter 160ms ease; }
    .frame-card:hover .frame-bg { stroke-width: 4; filter: url(#softShadow); }
    @media (prefers-reduced-motion: reduce) {
      .frame-card .frame-bg { transition: none; }
    }
  </style>
  <defs>
    <filter id="softShadow" x="-8%" y="-18%" width="116%" height="140%">
      <feDropShadow dx="0" dy="8" stdDeviation="8" flood-color="#0f172a" flood-opacity="0.13"/>
    </filter>
  </defs>
  <rect width="1280" height="1060" fill="#f8fafc"/>
  <rect x="34" y="34" width="1212" height="992" rx="28" fill="#ffffff" stroke="#d9e2ef" stroke-width="2"/>
  <rect x="34" y="34" width="1212" height="164" rx="28" fill="#dcfce7"/>
  <circle cx="103" cy="112" r="44" fill="#16a34a"/>
  <text x="103" y="125" text-anchor="middle" font-size="34" font-weight="900" fill="#ffffff" font-family="Inter, ui-sans-serif, system-ui">05</text>
  <text x="170" y="94" font-size="39" font-weight="900" fill="#111827" font-family="Inter, ui-sans-serif, system-ui">Reality Testing and Evidence Seeking</text>
  <text x="172" y="135" text-anchor="start" font-size="23" font-weight="560" fill="#263244" font-family="Inter, ui-sans-serif, system-ui, -apple-system, BlinkMacSystemFont, Segoe UI, Arial, sans-serif"><tspan x="172" dy="0">Use when: The plan depends on claims that are expensive, risky, or</tspan><tspan x="172" dy="28.52">behavior-dependent.</tspan></text>

  <text x="70" y="248" font-size="25" font-weight="900" fill="#111827" font-family="Inter, ui-sans-serif, system-ui">How it works: illustrated 1 -> 2 -> 3 -> 4 flow</text>

    <g class="frame-card">
      <rect class="frame-bg" x="70" y="288" width="252" height="310" rx="20" fill="#ffffff" stroke="#16a34a" stroke-opacity="0.34" stroke-width="2"/>
      <rect x="88" y="306" width="80" height="28" rx="14" fill="#16a34a" opacity="0.12"/>
      <text x="128" y="326" text-anchor="middle" font-size="13" font-weight="900" fill="#16a34a" letter-spacing="0" font-family="Inter, ui-sans-serif, system-ui">STEP 1</text>
      <circle cx="112" cy="374" r="25" fill="#16a34a"/>
      <text x="112" y="383" text-anchor="middle" font-size="23" font-weight="900" fill="#ffffff" font-family="Inter, ui-sans-serif, system-ui">1</text>
      <text x="146" y="366" text-anchor="start" font-size="23" font-weight="850" fill="#172033" font-family="Inter, ui-sans-serif, system-ui, -apple-system, BlinkMacSystemFont, Segoe UI, Arial, sans-serif"><tspan x="146" dy="0">List assumptions</tspan></text>
      <g class="step-art"><rect x="99" y="433" width="194" height="132" rx="20" fill="#dcfce7" opacity="0.8"/><g transform="translate(99, 433)">
      <rect x="45" y="28" width="107" height="90" rx="12" fill="#ffffff" stroke="#16a34a" stroke-width="4"/>

      <circle cx="67" cy="55" r="6" fill="#16a34a" opacity="0.95"/>
      <line x1="83" y1="55" x2="153" y2="55" stroke="#16a34a" stroke-width="4" stroke-linecap="round" stroke-linejoin="round" fill="none" opacity="0.72"/>

      <circle cx="67" cy="77" r="6" fill="#16a34a" opacity="0.45"/>
      <line x1="83" y1="77" x2="153" y2="77" stroke="#16a34a" stroke-width="4" stroke-linecap="round" stroke-linejoin="round" fill="none" opacity="0.32"/>

      <circle cx="67" cy="99" r="6" fill="#16a34a" opacity="0.45"/>
      <line x1="83" y1="99" x2="153" y2="99" stroke="#16a34a" stroke-width="4" stroke-linecap="round" stroke-linejoin="round" fill="none" opacity="0.32"/>

      <text x="135" y="84" text-anchor="middle" font-size="42" font-weight="900" fill="#16a34a" font-family="Inter, ui-sans-serif, system-ui">?</text>
    </g></g>
    </g>

    <g class="frame-card">
      <rect class="frame-bg" x="370" y="288" width="252" height="310" rx="20" fill="#ffffff" stroke="#16a34a" stroke-opacity="0.34" stroke-width="2"/>
      <rect x="388" y="306" width="80" height="28" rx="14" fill="#16a34a" opacity="0.12"/>
      <text x="428" y="326" text-anchor="middle" font-size="13" font-weight="900" fill="#16a34a" letter-spacing="0" font-family="Inter, ui-sans-serif, system-ui">STEP 2</text>
      <circle cx="412" cy="374" r="25" fill="#16a34a"/>
      <text x="412" y="383" text-anchor="middle" font-size="23" font-weight="900" fill="#ffffff" font-family="Inter, ui-sans-serif, system-ui">2</text>
      <text x="446" y="366" text-anchor="start" font-size="23" font-weight="850" fill="#172033" font-family="Inter, ui-sans-serif, system-ui, -apple-system, BlinkMacSystemFont, Segoe UI, Arial, sans-serif"><tspan x="446" dy="0">Zoom out</tspan></text>
      <g class="step-art"><rect x="399" y="433" width="194" height="132" rx="20" fill="#dcfce7" opacity="0.8"/><g transform="translate(399, 433)">
      <circle cx="96" cy="66" r="50" fill="#ffffff" stroke="#16a34a" stroke-width="5"/>
      <path d="M 62 66 H 130 M 96 32 V 100 M 72 42 C 88 55 104 55 120 42 M 72 90 C 88 77 104 77 120 90" stroke="#16a34a" stroke-width="4" stroke-linecap="round" stroke-linejoin="round" fill="none" opacity="0.44"/>
      <path d="M 132 99 L 158 123" stroke="#16a34a" stroke-width="4" stroke-linecap="round" stroke-linejoin="round" fill="none"/>
    </g></g>
    </g>

    <g class="frame-card">
      <rect class="frame-bg" x="670" y="288" width="252" height="310" rx="20" fill="#ffffff" stroke="#16a34a" stroke-opacity="0.34" stroke-width="2"/>
      <rect x="688" y="306" width="80" height="28" rx="14" fill="#16a34a" opacity="0.12"/>
      <text x="728" y="326" text-anchor="middle" font-size="13" font-weight="900" fill="#16a34a" letter-spacing="0" font-family="Inter, ui-sans-serif, system-ui">STEP 3</text>
      <circle cx="712" cy="374" r="25" fill="#16a34a"/>
      <text x="712" y="383" text-anchor="middle" font-size="23" font-weight="900" fill="#ffffff" font-family="Inter, ui-sans-serif, system-ui">3</text>
      <text x="746" y="366" text-anchor="start" font-size="23" font-weight="850" fill="#172033" font-family="Inter, ui-sans-serif, system-ui, -apple-system, BlinkMacSystemFont, Segoe UI, Arial, sans-serif"><tspan x="746" dy="0">Zoom in</tspan></text>
      <g class="step-art"><rect x="699" y="433" width="194" height="132" rx="20" fill="#dcfce7" opacity="0.8"/><g transform="translate(699, 433)">
      <rect x="46" y="36" width="72" height="58" rx="10" fill="#ffffff" stroke="#16a34a" stroke-width="4"/>
      <circle cx="122" cy="72" r="32" fill="none" stroke="#16a34a" stroke-width="5"/>
      <path d="M 145 95 L 166 116" stroke="#16a34a" stroke-width="4" stroke-linecap="round" stroke-linejoin="round" fill="none"/>
      <path d="M 63 58 H 101 M 63 76 H 87" stroke="#16a34a" stroke-width="4" stroke-linecap="round" stroke-linejoin="round" fill="none" opacity="0.36"/>
      <circle cx="123" cy="72" r="8" fill="#16a34a" opacity="0.75"/>
    </g></g>
    </g>

    <g class="frame-card">
      <rect class="frame-bg" x="970" y="288" width="252" height="310" rx="20" fill="#ffffff" stroke="#16a34a" stroke-opacity="0.34" stroke-width="2"/>
      <rect x="988" y="306" width="80" height="28" rx="14" fill="#16a34a" opacity="0.12"/>
      <text x="1028" y="326" text-anchor="middle" font-size="13" font-weight="900" fill="#16a34a" letter-spacing="0" font-family="Inter, ui-sans-serif, system-ui">STEP 4</text>
      <circle cx="1012" cy="374" r="25" fill="#16a34a"/>
      <text x="1012" y="383" text-anchor="middle" font-size="23" font-weight="900" fill="#ffffff" font-family="Inter, ui-sans-serif, system-ui">4</text>
      <text x="1046" y="366" text-anchor="start" font-size="23" font-weight="850" fill="#172033" font-family="Inter, ui-sans-serif, system-ui, -apple-system, BlinkMacSystemFont, Segoe UI, Arial, sans-serif"><tspan x="1046" dy="0">Seek disagreement</tspan></text>
      <g class="step-art"><rect x="999" y="433" width="194" height="132" rx="20" fill="#dcfce7" opacity="0.8"/><g transform="translate(999, 433)">
      <path d="M 42 35 H 78 Q 92 35 92 49 V 63 Q 92 77 78 77 H 70 L 52 93 V 77 H 42 Q 28 77 28 63 V 49 Q 28 35 42 35 Z" fill="#ffffff" stroke="#16a34a" stroke-opacity="0.52" stroke-width="3"/>
      <path d="M 115 55 H 151 Q 165 55 165 69 V 83 Q 165 97 151 97 H 143 L 125 113 V 97 H 115 Q 101 97 101 83 V 69 Q 101 55 115 55 Z" fill="#ffffff" stroke="#16a34a" stroke-opacity="0.52" stroke-width="3"/>
      <path d="M 49 58 H 73 M 133 78 H 154 M 143 67 V 89" stroke="#16a34a" stroke-width="4" stroke-linecap="round" stroke-linejoin="round" fill="none"/>
    </g></g>
    </g>


    <path d="M 336 438 H 354" stroke="#16a34a" stroke-width="4" stroke-linecap="round" opacity="0.52"/>
    <path d="M 343 430 L 355 438 L 343 446" fill="none" stroke="#16a34a" stroke-width="4" stroke-linecap="round" stroke-linejoin="round" opacity="0.52"/>


    <path d="M 636 438 H 654" stroke="#16a34a" stroke-width="4" stroke-linecap="round" opacity="0.52"/>
    <path d="M 643 430 L 655 438 L 643 446" fill="none" stroke="#16a34a" stroke-width="4" stroke-linecap="round" stroke-linejoin="round" opacity="0.52"/>


    <path d="M 936 438 H 954" stroke="#16a34a" stroke-width="4" stroke-linecap="round" opacity="0.52"/>
    <path d="M 943 430 L 955 438 L 943 446" fill="none" stroke="#16a34a" stroke-width="4" stroke-linecap="round" stroke-linejoin="round" opacity="0.52"/>



    <rect x="70" y="660" width="545" height="176" rx="18" fill="#ffffff" stroke="#d9e2ef" stroke-width="2"/>
    <rect x="70" y="660" width="545" height="46" rx="18" fill="#16a34a" opacity="0.94"/>
    <text x="94" y="691" font-size="20" font-weight="800" fill="#ffffff" font-family="Inter, ui-sans-serif, system-ui">Business example</text>
    <text x="570" y="691" text-anchor="end" font-size="15" font-weight="800" fill="#ffffff" opacity="0.88" font-family="Inter, ui-sans-serif, system-ui">scenario</text>
    <text x="94" y="742" text-anchor="start" font-size="22" font-weight="560" fill="#243047" font-family="Inter, ui-sans-serif, system-ui, -apple-system, BlinkMacSystemFont, Segoe UI, Arial, sans-serif"><tspan x="94" dy="0">Before a new attendance policy, check absence</tspan><tspan x="94" dy="27.72">trends, manager interviews, legal constraints,</tspan><tspan x="94" dy="27.72">and edge cases.</tspan></text>


    <rect x="665" y="660" width="545" height="176" rx="18" fill="#ffffff" stroke="#d9e2ef" stroke-width="2"/>
    <rect x="665" y="660" width="545" height="46" rx="18" fill="#16a34a" opacity="0.94"/>
    <text x="689" y="691" font-size="20" font-weight="800" fill="#ffffff" font-family="Inter, ui-sans-serif, system-ui">Coding example</text>
    <text x="1165" y="691" text-anchor="end" font-size="15" font-weight="800" fill="#ffffff" opacity="0.88" font-family="Inter, ui-sans-serif, system-ui">scenario</text>
    <text x="689" y="742" text-anchor="start" font-size="22" font-weight="560" fill="#243047" font-family="Inter, ui-sans-serif, system-ui, -apple-system, BlinkMacSystemFont, Segoe UI, Arial, sans-serif"><tspan x="689" dy="0">Before adding Redis, inspect traces, model cache</tspan><tspan x="689" dy="27.72">hit rates, ask SRE what fails, and test failure</tspan><tspan x="689" dy="27.72">behavior.</tspan></text>

  <rect x="70" y="892" width="1140" height="54" rx="14" fill="#f8fafc" stroke="#e5edf6"/>
  <text x="94" y="926" font-size="19" font-weight="900" fill="#16a34a" font-family="Inter, ui-sans-serif, system-ui">Output</text>
  <text x="174" y="926" text-anchor="start" font-size="19" font-weight="650" fill="#263244" font-family="Inter, ui-sans-serif, system-ui, -apple-system, BlinkMacSystemFont, Segoe UI, Arial, sans-serif"><tspan x="174" dy="0">Assumption register, evidence, confidence level, revised recommendation.</tspan></text>
</svg>
