<?xml version="1.0" encoding="UTF-8"?>
<svg xmlns="http://www.w3.org/2000/svg" width="1280" height="1060" viewBox="0 0 1280 1060" role="img" aria-labelledby="title desc">
  <title id="title">08 Operating Rhythm Implementation</title>
  <desc id="desc">Illustrated workflow with business and coding examples for Operating Rhythm Implementation.</desc>
  <style>
    .frame-card .frame-bg { transition: stroke-width 160ms ease, filter 160ms ease; }
    .frame-card:hover .frame-bg { stroke-width: 4; filter: url(#softShadow); }
    @media (prefers-reduced-motion: reduce) {
      .frame-card .frame-bg { transition: none; }
    }
  </style>
  <defs>
    <filter id="softShadow" x="-8%" y="-18%" width="116%" height="140%">
      <feDropShadow dx="0" dy="8" stdDeviation="8" flood-color="#0f172a" flood-opacity="0.13"/>
    </filter>
  </defs>
  <rect width="1280" height="1060" fill="#f8fafc"/>
  <rect x="34" y="34" width="1212" height="992" rx="28" fill="#ffffff" stroke="#d9e2ef" stroke-width="2"/>
  <rect x="34" y="34" width="1212" height="164" rx="28" fill="#ccfbf1"/>
  <circle cx="103" cy="112" r="44" fill="#0f766e"/>
  <text x="103" y="125" text-anchor="middle" font-size="34" font-weight="900" fill="#ffffff" font-family="Inter, ui-sans-serif, system-ui">08</text>
  <text x="170" y="94" font-size="39" font-weight="900" fill="#111827" font-family="Inter, ui-sans-serif, system-ui">Operating Rhythm Implementation</text>
  <text x="172" y="135" text-anchor="start" font-size="23" font-weight="560" fill="#263244" font-family="Inter, ui-sans-serif, system-ui, -apple-system, BlinkMacSystemFont, Segoe UI, Arial, sans-serif"><tspan x="172" dy="0">Use when: The solution only works if people repeat a new behavior with</tspan><tspan x="172" dy="28.52">accountability.</tspan></text>

  <text x="70" y="248" font-size="25" font-weight="900" fill="#111827" font-family="Inter, ui-sans-serif, system-ui">How it works: illustrated 1 -> 2 -> 3 -> 4 flow</text>

    <g class="frame-card">
      <rect class="frame-bg" x="70" y="288" width="252" height="310" rx="20" fill="#ffffff" stroke="#0f766e" stroke-opacity="0.34" stroke-width="2"/>
      <rect x="88" y="306" width="80" height="28" rx="14" fill="#0f766e" opacity="0.12"/>
      <text x="128" y="326" text-anchor="middle" font-size="13" font-weight="900" fill="#0f766e" letter-spacing="0" font-family="Inter, ui-sans-serif, system-ui">STEP 1</text>
      <circle cx="112" cy="374" r="25" fill="#0f766e"/>
      <text x="112" y="383" text-anchor="middle" font-size="23" font-weight="900" fill="#ffffff" font-family="Inter, ui-sans-serif, system-ui">1</text>
      <text x="146" y="366" text-anchor="start" font-size="23" font-weight="850" fill="#172033" font-family="Inter, ui-sans-serif, system-ui, -apple-system, BlinkMacSystemFont, Segoe UI, Arial, sans-serif"><tspan x="146" dy="0">Define behavior</tspan></text>
      <g class="step-art"><rect x="99" y="433" width="194" height="132" rx="20" fill="#ccfbf1" opacity="0.8"/><g transform="translate(99, 433)">
      <rect x="43" y="32" width="108" height="82" rx="12" fill="#ffffff" stroke="#0f766e" stroke-width="4"/>
      <path d="M 69 74 L 86 91 L 126 51" stroke="#0f766e" stroke-width="4" stroke-linecap="round" stroke-linejoin="round" fill="none"/>
      <circle cx="65" cy="50" r="10" fill="#0f766e" opacity="0.22"/>
      <path d="M 84 50 H 130" stroke="#0f766e" stroke-width="4" stroke-linecap="round" stroke-linejoin="round" fill="none" opacity="0.28"/>
    </g></g>
    </g>

    <g class="frame-card">
      <rect class="frame-bg" x="370" y="288" width="252" height="310" rx="20" fill="#ffffff" stroke="#0f766e" stroke-opacity="0.34" stroke-width="2"/>
      <rect x="388" y="306" width="80" height="28" rx="14" fill="#0f766e" opacity="0.12"/>
      <text x="428" y="326" text-anchor="middle" font-size="13" font-weight="900" fill="#0f766e" letter-spacing="0" font-family="Inter, ui-sans-serif, system-ui">STEP 2</text>
      <circle cx="412" cy="374" r="25" fill="#0f766e"/>
      <text x="412" y="383" text-anchor="middle" font-size="23" font-weight="900" fill="#ffffff" font-family="Inter, ui-sans-serif, system-ui">2</text>
      <text x="446" y="366" text-anchor="start" font-size="23" font-weight="850" fill="#172033" font-family="Inter, ui-sans-serif, system-ui, -apple-system, BlinkMacSystemFont, Segoe UI, Arial, sans-serif"><tspan x="446" dy="0">Set cadence</tspan></text>
      <g class="step-art"><rect x="399" y="433" width="194" height="132" rx="20" fill="#ccfbf1" opacity="0.8"/><g transform="translate(399, 433)">
      <rect x="45" y="32" width="105" height="84" rx="12" fill="#ffffff" stroke="#0f766e" stroke-width="4"/>
      <path d="M 45 55 H 150" stroke="#0f766e" stroke-width="4" stroke-linecap="round" stroke-linejoin="round" fill="none" opacity="0.28"/>
      <circle cx="70" cy="79" r="8" fill="#0f766e" opacity="0.35"/>
      <circle cx="97" cy="79" r="8" fill="#0f766e" opacity="0.35"/>
      <circle cx="124" cy="79" r="8" fill="#0f766e"/>
      <path d="M 68 23 V 43 M 126 23 V 43" stroke="#0f766e" stroke-width="4" stroke-linecap="round" stroke-linejoin="round" fill="none"/>
    </g></g>
    </g>

    <g class="frame-card">
      <rect class="frame-bg" x="670" y="288" width="252" height="310" rx="20" fill="#ffffff" stroke="#0f766e" stroke-opacity="0.34" stroke-width="2"/>
      <rect x="688" y="306" width="80" height="28" rx="14" fill="#0f766e" opacity="0.12"/>
      <text x="728" y="326" text-anchor="middle" font-size="13" font-weight="900" fill="#0f766e" letter-spacing="0" font-family="Inter, ui-sans-serif, system-ui">STEP 3</text>
      <circle cx="712" cy="374" r="25" fill="#0f766e"/>
      <text x="712" y="383" text-anchor="middle" font-size="23" font-weight="900" fill="#ffffff" font-family="Inter, ui-sans-serif, system-ui">3</text>
      <text x="746" y="366" text-anchor="start" font-size="23" font-weight="850" fill="#172033" font-family="Inter, ui-sans-serif, system-ui, -apple-system, BlinkMacSystemFont, Segoe UI, Arial, sans-serif"><tspan x="746" dy="0">Assign owner</tspan></text>
      <g class="step-art"><rect x="699" y="433" width="194" height="132" rx="20" fill="#ccfbf1" opacity="0.8"/><g transform="translate(699, 433)">
      <circle cx="83" cy="59" r="28" fill="#ffffff" stroke="#0f766e" stroke-width="4"/>
      <path d="M 45 113 Q 83 82 121 113" fill="#ffffff" stroke="#0f766e" stroke-width="4"/>
      <rect x="116" y="33" width="42" height="42" rx="21" fill="#0f766e"/>
      <text x="137" y="62" text-anchor="middle" font-size="24" font-weight="900" fill="#ffffff" font-family="Inter, ui-sans-serif, system-ui">1</text>
    </g></g>
    </g>

    <g class="frame-card">
      <rect class="frame-bg" x="970" y="288" width="252" height="310" rx="20" fill="#ffffff" stroke="#0f766e" stroke-opacity="0.34" stroke-width="2"/>
      <rect x="988" y="306" width="80" height="28" rx="14" fill="#0f766e" opacity="0.12"/>
      <text x="1028" y="326" text-anchor="middle" font-size="13" font-weight="900" fill="#0f766e" letter-spacing="0" font-family="Inter, ui-sans-serif, system-ui">STEP 4</text>
      <circle cx="1012" cy="374" r="25" fill="#0f766e"/>
      <text x="1012" y="383" text-anchor="middle" font-size="23" font-weight="900" fill="#ffffff" font-family="Inter, ui-sans-serif, system-ui">4</text>
      <text x="1046" y="366" text-anchor="start" font-size="23" font-weight="850" fill="#172033" font-family="Inter, ui-sans-serif, system-ui, -apple-system, BlinkMacSystemFont, Segoe UI, Arial, sans-serif"><tspan x="1046" dy="0">Review metric</tspan></text>
      <g class="step-art"><rect x="999" y="433" width="194" height="132" rx="20" fill="#ccfbf1" opacity="0.8"/><g transform="translate(999, 433)">
      <rect x="38" y="31" width="120" height="84" rx="12" fill="#ffffff" stroke="#0f766e" stroke-width="4"/>
      <rect x="59" y="78" width="16" height="20" rx="4" fill="#0f766e" opacity="0.42"/>
      <rect x="90" y="61" width="16" height="37" rx="4" fill="#0f766e" opacity="0.62"/>
      <rect x="121" y="47" width="16" height="51" rx="4" fill="#0f766e"/>
      <path d="M 56 48 H 100" stroke="#0f766e" stroke-width="4" stroke-linecap="round" stroke-linejoin="round" fill="none" opacity="0.24"/>
    </g></g>
    </g>


    <path d="M 336 438 H 354" stroke="#0f766e" stroke-width="4" stroke-linecap="round" opacity="0.52"/>
    <path d="M 343 430 L 355 438 L 343 446" fill="none" stroke="#0f766e" stroke-width="4" stroke-linecap="round" stroke-linejoin="round" opacity="0.52"/>


    <path d="M 636 438 H 654" stroke="#0f766e" stroke-width="4" stroke-linecap="round" opacity="0.52"/>
    <path d="M 643 430 L 655 438 L 643 446" fill="none" stroke="#0f766e" stroke-width="4" stroke-linecap="round" stroke-linejoin="round" opacity="0.52"/>


    <path d="M 936 438 H 954" stroke="#0f766e" stroke-width="4" stroke-linecap="round" opacity="0.52"/>
    <path d="M 943 430 L 955 438 L 943 446" fill="none" stroke="#0f766e" stroke-width="4" stroke-linecap="round" stroke-linejoin="round" opacity="0.52"/>



    <rect x="70" y="660" width="545" height="176" rx="18" fill="#ffffff" stroke="#d9e2ef" stroke-width="2"/>
    <rect x="70" y="660" width="545" height="46" rx="18" fill="#0f766e" opacity="0.94"/>
    <text x="94" y="691" font-size="20" font-weight="800" fill="#ffffff" font-family="Inter, ui-sans-serif, system-ui">Business example</text>
    <text x="570" y="691" text-anchor="end" font-size="15" font-weight="800" fill="#ffffff" opacity="0.88" font-family="Inter, ui-sans-serif, system-ui">scenario</text>
    <text x="94" y="742" text-anchor="start" font-size="22" font-weight="560" fill="#243047" font-family="Inter, ui-sans-serif, system-ui, -apple-system, BlinkMacSystemFont, Segoe UI, Arial, sans-serif"><tspan x="94" dy="0">Weekly pipeline review names owner, blockers,</tspan><tspan x="94" dy="27.72">next actions, and stage-conversion movement.</tspan></text>


    <rect x="665" y="660" width="545" height="176" rx="18" fill="#ffffff" stroke="#d9e2ef" stroke-width="2"/>
    <rect x="665" y="660" width="545" height="46" rx="18" fill="#0f766e" opacity="0.94"/>
    <text x="689" y="691" font-size="20" font-weight="800" fill="#ffffff" font-family="Inter, ui-sans-serif, system-ui">Coding example</text>
    <text x="1165" y="691" text-anchor="end" font-size="15" font-weight="800" fill="#ffffff" opacity="0.88" font-family="Inter, ui-sans-serif, system-ui">scenario</text>
    <text x="689" y="742" text-anchor="start" font-size="22" font-weight="560" fill="#243047" font-family="Inter, ui-sans-serif, system-ui, -apple-system, BlinkMacSystemFont, Segoe UI, Arial, sans-serif"><tspan x="689" dy="0">Daily deploy health check covers failed jobs,</tspan><tspan x="689" dy="27.72">rollback readiness, DRI ownership, and open</tspan><tspan x="689" dy="27.72">blockers.</tspan></text>

  <rect x="70" y="892" width="1140" height="54" rx="14" fill="#f8fafc" stroke="#e5edf6"/>
  <text x="94" y="926" font-size="19" font-weight="900" fill="#0f766e" font-family="Inter, ui-sans-serif, system-ui">Output</text>
  <text x="174" y="926" text-anchor="start" font-size="19" font-weight="650" fill="#263244" font-family="Inter, ui-sans-serif, system-ui, -apple-system, BlinkMacSystemFont, Segoe UI, Arial, sans-serif"><tspan x="174" dy="0">Cadence, roles, visible metric, communication script, review date.</tspan></text>
</svg>
